<mxfile host="app.diagrams.net" modified="2021-11-08T06:55:45.158Z" agent="5.0 (Windows NT 10.0; Win64; x64) AppleWebKit/537.36 (KHTML, like Gecko) Chrome/95.0.4638.69 Safari/537.36" etag="siH72oVnCjf9E36Yb5k2" version="15.6.8" type="github">
  <diagram id="YuZecG5I25dpixR6vj05" name="Page-1">
    <mxGraphModel dx="1468" dy="796" grid="1" gridSize="10" guides="1" tooltips="1" connect="1" arrows="1" fold="1" page="1" pageScale="1" pageWidth="827" pageHeight="1169" math="0" shadow="0">
      <root>
        <mxCell id="0" />
        <mxCell id="1" parent="0" />
        <mxCell id="5HYzruUeE1O8_S0unaO4-14" value="" style="rounded=0;whiteSpace=wrap;html=1;" vertex="1" parent="1">
          <mxGeometry x="480" y="40" width="319" height="440" as="geometry" />
        </mxCell>
        <mxCell id="5HYzruUeE1O8_S0unaO4-12" value="" style="rounded=0;whiteSpace=wrap;html=1;" vertex="1" parent="1">
          <mxGeometry x="80" y="40" width="320" height="440" as="geometry" />
        </mxCell>
        <mxCell id="5HYzruUeE1O8_S0unaO4-13" value="&lt;font style=&quot;font-size: 24px&quot;&gt;云盘项目&lt;/font&gt;" style="text;html=1;align=center;verticalAlign=middle;resizable=0;points=[];autosize=1;strokeColor=none;fillColor=none;" vertex="1" parent="1">
          <mxGeometry x="80" y="10" width="110" height="20" as="geometry" />
        </mxCell>
        <mxCell id="5HYzruUeE1O8_S0unaO4-15" value="&lt;font style=&quot;font-size: 24px&quot;&gt;站点收藏项目&lt;/font&gt;" style="text;html=1;align=center;verticalAlign=middle;resizable=0;points=[];autosize=1;strokeColor=none;fillColor=none;" vertex="1" parent="1">
          <mxGeometry x="480" y="10" width="160" height="20" as="geometry" />
        </mxCell>
        <mxCell id="5HYzruUeE1O8_S0unaO4-17" value="" style="endArrow=none;dashed=1;html=1;rounded=0;fontSize=24;" edge="1" parent="1">
          <mxGeometry width="50" height="50" relative="1" as="geometry">
            <mxPoint x="440" y="470" as="sourcePoint" />
            <mxPoint x="440" y="40" as="targetPoint" />
          </mxGeometry>
        </mxCell>
        <mxCell id="5HYzruUeE1O8_S0unaO4-18" value="" style="group" vertex="1" connectable="0" parent="1">
          <mxGeometry x="180" y="50" width="140" height="210" as="geometry" />
        </mxCell>
        <mxCell id="5HYzruUeE1O8_S0unaO4-2" value="" style="shape=cylinder3;whiteSpace=wrap;html=1;boundedLbl=1;backgroundOutline=1;size=15;" vertex="1" parent="5HYzruUeE1O8_S0unaO4-18">
          <mxGeometry y="30" width="140" height="180" as="geometry" />
        </mxCell>
        <mxCell id="5HYzruUeE1O8_S0unaO4-4" value="在线解压" style="rounded=0;whiteSpace=wrap;html=1;" vertex="1" parent="5HYzruUeE1O8_S0unaO4-18">
          <mxGeometry x="20" y="80" width="100" height="30" as="geometry" />
        </mxCell>
        <mxCell id="5HYzruUeE1O8_S0unaO4-5" value="大菠萝2" style="rounded=0;whiteSpace=wrap;html=1;" vertex="1" parent="5HYzruUeE1O8_S0unaO4-18">
          <mxGeometry x="20" y="130" width="100" height="30" as="geometry" />
        </mxCell>
        <mxCell id="5HYzruUeE1O8_S0unaO4-7" value="&lt;font style=&quot;font-size: 18px&quot;&gt;手雷应用库&lt;/font&gt;" style="text;html=1;align=center;verticalAlign=middle;resizable=0;points=[];autosize=1;strokeColor=none;fillColor=none;" vertex="1" parent="5HYzruUeE1O8_S0unaO4-18">
          <mxGeometry x="15" width="110" height="20" as="geometry" />
        </mxCell>
        <mxCell id="5HYzruUeE1O8_S0unaO4-19" value="" style="group" vertex="1" connectable="0" parent="1">
          <mxGeometry x="500" y="50" width="140" height="210" as="geometry" />
        </mxCell>
        <mxCell id="5HYzruUeE1O8_S0unaO4-8" value="" style="shape=cylinder3;whiteSpace=wrap;html=1;boundedLbl=1;backgroundOutline=1;size=15;" vertex="1" parent="5HYzruUeE1O8_S0unaO4-19">
          <mxGeometry y="30" width="140" height="180" as="geometry" />
        </mxCell>
        <mxCell id="5HYzruUeE1O8_S0unaO4-9" value="网址大全" style="rounded=0;whiteSpace=wrap;html=1;" vertex="1" parent="5HYzruUeE1O8_S0unaO4-19">
          <mxGeometry x="20" y="80" width="100" height="30" as="geometry" />
        </mxCell>
        <mxCell id="5HYzruUeE1O8_S0unaO4-10" value="&lt;font style=&quot;font-size: 18px&quot;&gt;应用扩展模块&lt;/font&gt;" style="text;html=1;align=center;verticalAlign=middle;resizable=0;points=[];autosize=1;strokeColor=none;fillColor=none;" vertex="1" parent="5HYzruUeE1O8_S0unaO4-19">
          <mxGeometry x="10" width="120" height="20" as="geometry" />
        </mxCell>
        <mxCell id="5HYzruUeE1O8_S0unaO4-11" value="实用工具" style="rounded=0;whiteSpace=wrap;html=1;" vertex="1" parent="5HYzruUeE1O8_S0unaO4-19">
          <mxGeometry x="20" y="130" width="100" height="30" as="geometry" />
        </mxCell>
        <mxCell id="5HYzruUeE1O8_S0unaO4-20" value="&lt;font style=&quot;font-size: 18px&quot;&gt;配置后台&lt;/font&gt;" style="rounded=0;whiteSpace=wrap;html=1;fontSize=24;" vertex="1" parent="1">
          <mxGeometry x="670" y="140" width="120" height="60" as="geometry" />
        </mxCell>
        <mxCell id="5HYzruUeE1O8_S0unaO4-21" value="" style="endArrow=classic;startArrow=classic;html=1;rounded=0;fontSize=18;exitX=1;exitY=0.5;exitDx=0;exitDy=0;exitPerimeter=0;entryX=0;entryY=0.5;entryDx=0;entryDy=0;" edge="1" parent="1" source="5HYzruUeE1O8_S0unaO4-8" target="5HYzruUeE1O8_S0unaO4-20">
          <mxGeometry width="50" height="50" relative="1" as="geometry">
            <mxPoint x="610" y="340" as="sourcePoint" />
            <mxPoint x="660" y="290" as="targetPoint" />
          </mxGeometry>
        </mxCell>
        <mxCell id="5HYzruUeE1O8_S0unaO4-22" value="File" style="shape=cylinder3;whiteSpace=wrap;html=1;boundedLbl=1;backgroundOutline=1;size=15;fontSize=18;" vertex="1" parent="1">
          <mxGeometry x="180" y="320" width="135" height="130" as="geometry" />
        </mxCell>
        <mxCell id="5HYzruUeE1O8_S0unaO4-41" value="" style="group" vertex="1" connectable="0" parent="1">
          <mxGeometry x="500" y="300" width="140" height="170" as="geometry" />
        </mxCell>
        <mxCell id="5HYzruUeE1O8_S0unaO4-42" value="" style="shape=cylinder3;whiteSpace=wrap;html=1;boundedLbl=1;backgroundOutline=1;size=15;" vertex="1" parent="5HYzruUeE1O8_S0unaO4-41">
          <mxGeometry y="24.285714285714285" width="140" height="145.71428571428572" as="geometry" />
        </mxCell>
        <mxCell id="5HYzruUeE1O8_S0unaO4-43" value="站点发布" style="rounded=0;whiteSpace=wrap;html=1;" vertex="1" parent="5HYzruUeE1O8_S0unaO4-41">
          <mxGeometry x="20" y="64.76190476190476" width="100" height="24.285714285714285" as="geometry" />
        </mxCell>
        <mxCell id="5HYzruUeE1O8_S0unaO4-44" value="&lt;font style=&quot;font-size: 18px&quot;&gt;站点管理模块&lt;/font&gt;" style="text;html=1;align=center;verticalAlign=middle;resizable=0;points=[];autosize=1;strokeColor=none;fillColor=none;" vertex="1" parent="5HYzruUeE1O8_S0unaO4-41">
          <mxGeometry x="10" width="120" height="20" as="geometry" />
        </mxCell>
        <mxCell id="5HYzruUeE1O8_S0unaO4-45" value="站点运营" style="rounded=0;whiteSpace=wrap;html=1;" vertex="1" parent="5HYzruUeE1O8_S0unaO4-41">
          <mxGeometry x="20" y="105.23809523809524" width="100" height="24.285714285714285" as="geometry" />
        </mxCell>
        <mxCell id="5HYzruUeE1O8_S0unaO4-46" value="" style="rounded=0;whiteSpace=wrap;html=1;" vertex="1" parent="1">
          <mxGeometry x="480" y="720" width="320" height="440" as="geometry" />
        </mxCell>
        <mxCell id="5HYzruUeE1O8_S0unaO4-47" value="" style="rounded=0;whiteSpace=wrap;html=1;" vertex="1" parent="1">
          <mxGeometry x="80" y="720" width="320" height="440" as="geometry" />
        </mxCell>
        <mxCell id="5HYzruUeE1O8_S0unaO4-48" value="&lt;font style=&quot;font-size: 24px&quot;&gt;云盘项目&lt;/font&gt;" style="text;html=1;align=center;verticalAlign=middle;resizable=0;points=[];autosize=1;strokeColor=none;fillColor=none;" vertex="1" parent="1">
          <mxGeometry x="70" y="690" width="110" height="20" as="geometry" />
        </mxCell>
        <mxCell id="5HYzruUeE1O8_S0unaO4-49" value="&lt;font style=&quot;font-size: 24px&quot;&gt;站点收藏项目&lt;/font&gt;" style="text;html=1;align=center;verticalAlign=middle;resizable=0;points=[];autosize=1;strokeColor=none;fillColor=none;" vertex="1" parent="1">
          <mxGeometry x="480" y="690" width="160" height="20" as="geometry" />
        </mxCell>
        <mxCell id="5HYzruUeE1O8_S0unaO4-50" value="" style="endArrow=none;dashed=1;html=1;rounded=0;fontSize=24;" edge="1" parent="1">
          <mxGeometry width="50" height="50" relative="1" as="geometry">
            <mxPoint x="440" y="1150" as="sourcePoint" />
            <mxPoint x="440" y="720" as="targetPoint" />
          </mxGeometry>
        </mxCell>
        <mxCell id="5HYzruUeE1O8_S0unaO4-61" value="&lt;font style=&quot;font-size: 18px&quot;&gt;配置后台&lt;/font&gt;" style="rounded=0;whiteSpace=wrap;html=1;fontSize=24;" vertex="1" parent="1">
          <mxGeometry x="270" y="830" width="120" height="60" as="geometry" />
        </mxCell>
        <mxCell id="5HYzruUeE1O8_S0unaO4-62" value="" style="endArrow=classic;startArrow=classic;html=1;rounded=0;fontSize=18;exitX=1;exitY=0.5;exitDx=0;exitDy=0;exitPerimeter=0;entryX=0;entryY=0.5;entryDx=0;entryDy=0;" edge="1" parent="1" source="5HYzruUeE1O8_S0unaO4-52" target="5HYzruUeE1O8_S0unaO4-61">
          <mxGeometry width="50" height="50" relative="1" as="geometry">
            <mxPoint x="590" y="1020" as="sourcePoint" />
            <mxPoint x="640" y="970" as="targetPoint" />
          </mxGeometry>
        </mxCell>
        <mxCell id="5HYzruUeE1O8_S0unaO4-63" value="File" style="shape=cylinder3;whiteSpace=wrap;html=1;boundedLbl=1;backgroundOutline=1;size=15;fontSize=18;" vertex="1" parent="1">
          <mxGeometry x="92.5" y="1010" width="135" height="130" as="geometry" />
        </mxCell>
        <mxCell id="5HYzruUeE1O8_S0unaO4-65" value="" style="group" vertex="1" connectable="0" parent="1">
          <mxGeometry x="560" y="870" width="140" height="170" as="geometry" />
        </mxCell>
        <mxCell id="5HYzruUeE1O8_S0unaO4-66" value="" style="shape=cylinder3;whiteSpace=wrap;html=1;boundedLbl=1;backgroundOutline=1;size=15;" vertex="1" parent="5HYzruUeE1O8_S0unaO4-65">
          <mxGeometry y="24.285714285714285" width="140" height="145.71428571428572" as="geometry" />
        </mxCell>
        <mxCell id="5HYzruUeE1O8_S0unaO4-67" value="站点发布" style="rounded=0;whiteSpace=wrap;html=1;" vertex="1" parent="5HYzruUeE1O8_S0unaO4-65">
          <mxGeometry x="20" y="64.76190476190476" width="100" height="24.285714285714285" as="geometry" />
        </mxCell>
        <mxCell id="5HYzruUeE1O8_S0unaO4-68" value="&lt;font style=&quot;font-size: 18px&quot;&gt;站点管理模块&lt;/font&gt;" style="text;html=1;align=center;verticalAlign=middle;resizable=0;points=[];autosize=1;strokeColor=none;fillColor=none;" vertex="1" parent="5HYzruUeE1O8_S0unaO4-65">
          <mxGeometry x="10" width="120" height="20" as="geometry" />
        </mxCell>
        <mxCell id="5HYzruUeE1O8_S0unaO4-69" value="站点运营" style="rounded=0;whiteSpace=wrap;html=1;" vertex="1" parent="5HYzruUeE1O8_S0unaO4-65">
          <mxGeometry x="20" y="105.23809523809524" width="100" height="24.285714285714285" as="geometry" />
        </mxCell>
        <mxCell id="5HYzruUeE1O8_S0unaO4-70" value="" style="shape=flexArrow;endArrow=classic;html=1;rounded=0;fontSize=18;endWidth=156;endSize=15.54;width=75;" edge="1" parent="1">
          <mxGeometry width="50" height="50" relative="1" as="geometry">
            <mxPoint x="440" y="520" as="sourcePoint" />
            <mxPoint x="440" y="630" as="targetPoint" />
          </mxGeometry>
        </mxCell>
        <mxCell id="5HYzruUeE1O8_S0unaO4-52" value="" style="shape=cylinder3;whiteSpace=wrap;html=1;boundedLbl=1;backgroundOutline=1;size=15;" vertex="1" parent="1">
          <mxGeometry x="90" y="770" width="140" height="180" as="geometry" />
        </mxCell>
        <mxCell id="5HYzruUeE1O8_S0unaO4-53" value="在线解压" style="rounded=0;whiteSpace=wrap;html=1;" vertex="1" parent="1">
          <mxGeometry x="110" y="800" width="100" height="30" as="geometry" />
        </mxCell>
        <mxCell id="5HYzruUeE1O8_S0unaO4-54" value="大菠萝2" style="rounded=0;whiteSpace=wrap;html=1;" vertex="1" parent="1">
          <mxGeometry x="110" y="835" width="100" height="30" as="geometry" />
        </mxCell>
        <mxCell id="5HYzruUeE1O8_S0unaO4-55" value="&lt;font style=&quot;font-size: 18px&quot;&gt;手雷应用库&lt;/font&gt;" style="text;html=1;align=center;verticalAlign=middle;resizable=0;points=[];autosize=1;strokeColor=none;fillColor=none;" vertex="1" parent="1">
          <mxGeometry x="105" y="740" width="110" height="20" as="geometry" />
        </mxCell>
        <mxCell id="5HYzruUeE1O8_S0unaO4-58" value="网址大全" style="rounded=0;whiteSpace=wrap;html=1;" vertex="1" parent="1">
          <mxGeometry x="110" y="870" width="100" height="30" as="geometry" />
        </mxCell>
        <mxCell id="5HYzruUeE1O8_S0unaO4-60" value="实用工具" style="rounded=0;whiteSpace=wrap;html=1;" vertex="1" parent="1">
          <mxGeometry x="110" y="910" width="100" height="30" as="geometry" />
        </mxCell>
        <mxCell id="5HYzruUeE1O8_S0unaO4-72" value="" style="shape=flexArrow;endArrow=classic;startArrow=classic;html=1;rounded=0;fontSize=18;exitX=0.5;exitY=0;exitDx=0;exitDy=0;exitPerimeter=0;entryX=0.5;entryY=1;entryDx=0;entryDy=0;entryPerimeter=0;startWidth=41.1764705882353;startSize=6.929411764705882;width=32.94117647058824;endWidth=41.1764705882353;endSize=4.811764705882353;" edge="1" parent="1" source="5HYzruUeE1O8_S0unaO4-22" target="5HYzruUeE1O8_S0unaO4-2">
          <mxGeometry width="100" height="100" relative="1" as="geometry">
            <mxPoint x="210" y="360" as="sourcePoint" />
            <mxPoint x="310" y="260" as="targetPoint" />
          </mxGeometry>
        </mxCell>
        <mxCell id="5HYzruUeE1O8_S0unaO4-74" value="" style="shape=flexArrow;endArrow=classic;startArrow=classic;html=1;rounded=0;fontSize=18;exitX=0.5;exitY=0;exitDx=0;exitDy=0;exitPerimeter=0;entryX=0.5;entryY=1;entryDx=0;entryDy=0;entryPerimeter=0;startWidth=41.1764705882353;startSize=6.929411764705882;width=32.94117647058824;endWidth=41.1764705882353;endSize=4.811764705882353;" edge="1" parent="1">
          <mxGeometry width="100" height="100" relative="1" as="geometry">
            <mxPoint x="158.75" y="1010" as="sourcePoint" />
            <mxPoint x="161.25" y="950" as="targetPoint" />
          </mxGeometry>
        </mxCell>
      </root>
    </mxGraphModel>
  </diagram>
</mxfile>
